<?xml version="1.0" encoding="UTF-8"?>
<svg id="Layer_1" xmlns="http://www.w3.org/2000/svg" version="1.1" viewBox="0 0 400 400">
  <!-- Generator: Adobe Illustrator 29.3.0, SVG Export Plug-In . SVG Version: 2.1.0 Build 146)  -->
  <defs>
    <style>
      .st0 {
        fill: #92ded9;
      }
    </style>
  </defs>
  <path class="st0" d="M308.5,207.2c-2-1-3.7-2.6-4.9-4.5-1.2-1.9-1.8-4.2-1.8-6.4s.6-4.5,1.8-6.4c1.2-1.9,2.9-3.5,4.9-4.5l34.1-17c-2-9-4.9-17.9-8.6-26.4l-86.8,43.4c-2,1-3.8,2.6-5,4.5-1.2,1.9-1.8,4.2-1.8,6.4s.6,4.5,1.8,6.4c1.2,1.9,2.9,3.5,5,4.5l89.3,44.7c3.3-8.7,5.8-17.8,7.4-27l-35.4-17.7ZM233,218.2c-1.9-.9-3.9-1.4-6-1.3-2.1,0-4.1.7-5.9,1.8-1.8,1.1-3.2,2.6-4.3,4.5-1,1.8-1.5,3.9-1.5,6v3.3c0,2.3.6,4.5,1.8,6.4,1.2,1.9,2.9,3.5,4.9,4.5l92.8,46.4c5.7-7.2,10.7-15,15-23.2l-96.9-48.5ZM233,267.1c-1.9-.9-3.9-1.4-6-1.3-2.1,0-4.1.7-5.9,1.8-1.8,1.1-3.2,2.6-4.3,4.5-1,1.8-1.5,3.9-1.5,6v3.3c0,2.3.6,4.5,1.8,6.4,1.2,1.9,2.9,3.5,5,4.5l58.3,29.1c8.4-5.5,16.2-11.8,23.3-18.9h0c0,0-70.7-35.4-70.7-35.4ZM261.7,330.3l-28.7-14.4c-1.9-.9-3.9-1.4-6-1.3-2.1,0-4.1.7-5.9,1.8-1.8,1.1-3.2,2.6-4.3,4.5-1,1.8-1.5,3.9-1.5,6v14.5c0,.1,0,.3,0,.4,0,.1.1.3.3.4.1.1.2.2.4.2.1,0,.3,0,.4,0,12.1-.8,24-3,35.5-6.7,3.5-1.3,7-2.8,10.4-4.4,0-.2,0-.5-.1-.7-.1-.2-.3-.4-.5-.5ZM160.5,60.8v278.5c11.9,3.5,24.2,5.4,36.5,5.7V55.1c-12.4.3-24.6,2.2-36.5,5.7ZM101.8,94.3v211.5c10.1,9.5,21.6,17.5,34,23.8V70.5c-12.4,6.3-23.9,14.3-34,23.8ZM56,200c0,27.7,7.9,54.9,22.9,78.2V121.8c-15,23.3-22.9,50.5-22.9,78.2ZM215.3,55.7v9.8c0,2.1.5,4.1,1.5,6,1,1.8,2.5,3.4,4.3,4.5,1.8,1.1,3.8,1.7,5.9,1.8,2.1,0,4.2-.3,6-1.3l22.1-11.1c-12.7-5.1-26.2-8.4-39.8-9.7ZM273.5,74.4l-51.5,25.7c-2,1-3.8,2.6-5,4.5-1.2,1.9-1.8,4.2-1.8,6.5v3.3c0,2.1.5,4.1,1.5,6,1,1.8,2.5,3.4,4.3,4.5,1.8,1.1,3.8,1.7,5.9,1.8,2.1,0,4.2-.3,6-1.3l65.5-32.8c-7.6-6.9-16-13-24.9-18.2h0ZM310.4,104.8l-88.4,44.2c-2,1-3.8,2.6-5,4.5-1.2,1.9-1.8,4.2-1.8,6.4v3.3c0,2.1.5,4.1,1.5,6,1,1.8,2.5,3.4,4.3,4.5,1.8,1.1,3.8,1.7,5.9,1.8,2.1,0,4.2-.3,6-1.3l93.6-46.8c-4.6-8-10-15.6-16.1-22.6h0Z"/>
</svg>