<svg width="20" height="14" viewBox="0 0 20 14" fill="none" xmlns="http://www.w3.org/2000/svg">
<path d="M1 0C1.55313 0 2 0.446875 2 1V9H9V4C9 3.44688 9.44687 3 10 3H17C18.6562 3 20 4.34375 20 6V13C20 13.5531 19.5531 14 19 14C18.4469 14 18 13.5531 18 13V12H11H10H2V13C2 13.5531 1.55313 14 1 14C0.446875 14 0 13.5531 0 13V1C0 0.446875 0.446875 0 1 0ZM5.5 3C6.16304 3 6.79893 3.26339 7.26777 3.73223C7.73661 4.20107 8 4.83696 8 5.5C8 6.16304 7.73661 6.79893 7.26777 7.26777C6.79893 7.73661 6.16304 8 5.5 8C4.83696 8 4.20107 7.73661 3.73223 7.26777C3.26339 6.79893 3 6.16304 3 5.5C3 4.83696 3.26339 4.20107 3.73223 3.73223C4.20107 3.26339 4.83696 3 5.5 3Z" fill="#0A273B"/>
</svg>
