<svg width="16" height="16" viewBox="0 0 16 16" fill="none" xmlns="http://www.w3.org/2000/svg">
<path d="M3 2.41563C3 2.1875 3.18438 2 3.41563 2C3.525 2 3.63125 2.04375 3.70937 2.12188L4.175 2.5875C4.0625 2.86875 4 3.17812 4 3.5C4 4.12187 4.225 4.6875 4.6 5.125C4.43437 5.4125 4.475 5.78438 4.71875 6.03125C5.0125 6.325 5.4875 6.325 5.77812 6.03125L9.03125 2.78125C9.325 2.4875 9.325 2.0125 9.03125 1.72187C8.78438 1.475 8.4125 1.4375 8.125 1.60312C7.6875 1.225 7.12187 1 6.5 1C6.17812 1 5.86875 1.0625 5.5875 1.17188L5.12187 0.70625C4.66875 0.253125 4.05312 0 3.41563 0C2.08125 0 1 1.08125 1 2.41563V8C0.446875 8 0 8.44687 0 9C0 9.55313 0.446875 10 1 10H15C15.5531 10 16 9.55313 16 9C16 8.44687 15.5531 8 15 8H3V2.41563ZM1 11V11.5C1 12.3875 1.3875 13.1875 2 13.7375V15C2 15.5531 2.44688 16 3 16C3.55312 16 4 15.5531 4 15V14.5H12V15C12 15.5531 12.4469 16 13 16C13.5531 16 14 15.5531 14 15V13.7375C14.6125 13.1875 15 12.3906 15 11.5V11H1Z" fill="#0A273B"/>
</svg>
