<svg width="17" height="20" viewBox="0 0 17 20" fill="none" xmlns="http://www.w3.org/2000/svg">
<path d="M5.76786 0.9375C5.76786 0.417969 5.36183 0 4.85714 0C4.35246 0 3.94643 0.417969 3.94643 0.9375V2.5H2.42857C1.08906 2.5 0 3.62109 0 5V5.625V7.5V17.5C0 18.8789 1.08906 20 2.42857 20H14.5714C15.9109 20 17 18.8789 17 17.5V7.5V5.625V5C17 3.62109 15.9109 2.5 14.5714 2.5H13.0536V0.9375C13.0536 0.417969 12.6475 0 12.1429 0C11.6382 0 11.2321 0.417969 11.2321 0.9375V2.5H5.76786V0.9375ZM1.82143 7.5H15.1786V17.5C15.1786 17.8438 14.9054 18.125 14.5714 18.125H2.42857C2.09464 18.125 1.82143 17.8438 1.82143 17.5V7.5Z" fill="#0A273B"/>
</svg>
