<svg width="457" height="202" viewBox="0 0 457 202" fill="none" xmlns="http://www.w3.org/2000/svg">
<g clip-path="url(#clip0_558_397)">
<path d="M437.137 201.141C437.137 200.103 436.792 199.342 436.24 198.926C435.343 198.303 434.102 198.58 434.102 198.58L433.826 198.65L433.688 198.373C433.412 197.681 432.998 197.265 432.446 197.127C431.412 196.85 430.24 197.542 430.24 197.542L429.826 197.819L429.688 197.334C429.619 196.85 429.412 196.573 429.067 196.366C428.446 195.95 427.618 196.158 427.618 196.158L427.136 196.296L427.205 195.811C427.411 194.358 427.136 193.251 426.515 192.628C425.412 191.589 423.618 191.866 423.618 191.866L423.48 191.174C423.549 191.174 425.687 190.828 426.998 192.143C427.757 192.904 428.101 194.012 427.964 195.535C428.377 195.535 428.998 195.535 429.481 195.881C429.826 196.089 430.101 196.434 430.308 196.85C430.861 196.573 431.757 196.296 432.723 196.573C433.412 196.78 433.895 197.196 434.309 197.957C434.791 197.888 435.895 197.819 436.723 198.442C437.481 198.996 437.826 199.895 437.895 201.21L437.137 201.141Z" fill="#E6EBED"/>
<path d="M94.5139 195.678L94.1216 195.47C94.1216 195.401 94.4266 193.947 95.1246 193.601C95.3866 193.463 95.6916 193.532 95.9972 193.809C96.1713 193.463 96.5205 192.978 96.9566 192.909C97.3489 192.84 97.7419 193.048 98.0906 193.601L97.7855 194.086C97.5236 193.671 97.2616 193.532 97.0002 193.601C96.5205 193.671 96.2149 194.432 96.2149 194.432L96.0845 194.709L95.9099 194.501C95.6479 194.224 95.4739 194.086 95.2556 194.224C94.8632 194.501 94.6013 195.401 94.5139 195.678Z" fill="#E6EBED"/>
<path d="M53.3144 198.65L52.7627 198.304C52.8316 198.235 53.7972 196.643 55.3836 196.366C55.9353 196.227 56.5561 196.366 57.108 196.643C57.2458 196.158 57.6597 195.328 58.4183 194.843C59.1078 194.427 59.9356 194.289 60.832 194.497C61.039 193.874 61.5907 192.421 62.6254 191.936C63.2463 191.659 63.8672 191.659 64.6258 192.005L64.3497 192.628C63.798 192.351 63.3841 192.351 62.9702 192.559C61.8668 193.113 61.4529 194.982 61.4529 194.982L61.3843 195.328L61.039 195.258C60.1426 194.982 59.3839 195.051 58.8322 195.466C57.8666 196.089 57.6597 197.266 57.6597 197.335L57.5905 197.889L57.108 197.542C56.5561 197.127 56.0733 196.989 55.5215 197.127C54.2111 197.196 53.3144 198.581 53.3144 198.65Z" fill="#E6EBED"/>
<path d="M68.005 118.22C66.5563 117.389 64.7635 117.459 64.4873 117.459V103.961H63.7979V118.635V201.833H75.5228V200.448C75.1781 200.448 74.7642 200.24 74.1433 199.341H90.3515C90.2823 199.894 90.2137 200.448 90.0754 201.071L89.9376 201.902H93.2483L93.3861 201.348C104.835 146.045 68.3497 118.428 68.005 118.22ZM73.9363 198.925C73.6602 198.441 73.3846 197.68 73.1085 196.78H90.627C90.5584 197.472 90.4201 198.164 90.3515 198.925H73.9363ZM71.1087 185.359H91.524C91.524 185.774 91.524 186.12 91.524 186.536H71.2465C71.1773 186.12 71.1773 185.774 71.1087 185.359ZM91.4549 186.882C91.4549 187.574 91.3857 188.335 91.3857 189.027H71.5226C71.4535 188.335 71.3157 187.644 71.2465 186.882H91.4549ZM91.3857 189.374C91.3171 190.066 91.3171 190.827 91.2479 191.519H71.936C71.7982 190.827 71.7296 190.135 71.5912 189.374H91.3857ZM91.1793 191.866C91.1101 192.558 91.041 193.25 90.9723 194.011H72.4191C72.2813 193.388 72.1429 192.627 72.0051 191.866H91.1793ZM90.9723 194.357C90.9032 195.049 90.834 195.742 90.6962 196.503H73.0399C72.833 195.88 72.6946 195.188 72.4882 194.357H90.9723ZM92.1449 200.448H91.5926C92.4896 194.565 92.9035 189.789 92.9035 184.667V183.975H69.5914L69.66 184.736C70.6256 194.219 71.936 198.579 73.2469 200.448H65.1082V118.842C65.6599 118.842 66.5563 118.981 67.2463 119.396C67.3149 119.465 76.4884 126.179 84.2818 140.576C90.9723 152.828 97.6624 173.108 92.1449 200.448Z" fill="#07151F"/>
<path d="M91.3862 165.495L91.3176 164.941H68.4194V165.633C68.6264 171.586 68.9711 176.846 69.4536 182.315L69.5228 182.938H92.9041V182.245C92.9041 176.431 92.421 171.448 91.3862 165.495ZM90.6968 170.063H70.0053C70.0053 169.371 69.9367 168.61 69.9367 167.918H90.4206C90.4898 168.61 90.6276 169.371 90.6968 170.063ZM90.7659 170.41C90.8345 171.102 90.9729 171.863 91.0415 172.555H70.2123C70.1437 171.863 70.1437 171.102 70.0745 170.41H90.7659ZM91.0415 172.901C91.1107 173.593 91.1793 174.355 91.2485 175.047H70.2815C70.2123 174.355 70.2123 173.593 70.1437 172.901H91.0415ZM91.2485 175.393C91.3176 176.085 91.3176 176.846 91.3862 177.539H70.4884C70.4192 176.846 70.4192 176.085 70.3506 175.393H91.2485ZM70.4884 177.815H91.3862C91.3862 178.508 91.4554 179.269 91.4554 179.961H70.6262C70.6262 179.269 70.557 178.577 70.4884 177.815ZM90.1451 166.326C90.2137 166.741 90.2829 167.156 90.352 167.571H69.9367C69.9367 167.156 69.9367 166.741 69.8675 166.326H90.1451ZM70.8331 181.553C70.764 181.138 70.764 180.722 70.6954 180.307H91.5246C91.5246 180.722 91.5246 181.138 91.5246 181.553H70.8331Z" fill="#E6EBED"/>
<path d="M91.1104 163.074C89.8687 156.845 88.0759 150.892 85.6616 145.355L85.4546 144.939H68.1431V145.632C68.1431 151.723 68.2122 157.676 68.4192 163.282V163.974H91.2482L91.1104 163.074ZM86.1447 150.477H69.5226C69.5226 149.785 69.5226 149.023 69.5226 148.331H85.3855C85.6616 149.023 85.9377 149.716 86.1447 150.477ZM86.2824 150.823C86.558 151.515 86.765 152.276 87.0411 152.969H69.5912C69.5912 152.276 69.5912 151.515 69.5912 150.823H86.2824ZM87.1103 153.315C87.3167 154.007 87.5236 154.769 87.7997 155.461H69.5912C69.5912 154.769 69.5912 154.007 69.5912 153.315H87.1103ZM87.8689 155.738C88.0759 156.43 88.2822 157.191 88.4892 157.883H69.6604C69.6604 157.191 69.6604 156.43 69.5912 155.738H87.8689ZM88.5584 158.229C88.7653 158.921 88.9031 159.683 89.1101 160.375H69.7295C69.7295 159.683 69.6604 158.921 69.6604 158.229H88.5584ZM84.5582 146.324C84.7652 146.878 85.0407 147.432 85.2477 147.985H69.5226C69.5226 147.432 69.5226 146.878 69.5226 146.324H84.5582ZM69.7295 162.52C69.7295 161.898 69.7295 161.344 69.6604 160.721H89.1101C89.2478 161.344 89.3862 161.898 89.524 162.52H69.7295Z" fill="#E6EBED"/>
<path d="M84.9029 142.932C79.5924 132.065 73.178 125.559 70.6951 123.206L70.4882 122.998L70.419 122.929C70.3504 122.86 69.7981 122.652 69.3156 122.929C69.1087 122.998 68.8325 123.275 68.7639 123.829C68.4192 126.736 68.2122 134.349 68.1431 143.209V143.901H85.3855L84.9029 142.932ZM70.0743 124.59C72.488 126.874 77.7299 132.343 82.4201 141.064H69.5912C69.5912 132.411 69.8673 126.944 70.0743 124.59ZM69.5226 142.586C69.5226 142.171 69.5226 141.825 69.5226 141.41H82.5578C82.7648 141.756 82.9718 142.171 83.1787 142.586H69.5226Z" fill="#E6EBED"/>
<path d="M123.423 108.115H122.733V118.221H123.423V108.115Z" fill="#E6EBED"/>
<path d="M121.63 108.115H120.94V118.221H121.63V108.115Z" fill="#E6EBED"/>
<path d="M119.906 108.115H119.216V118.221H119.906V108.115Z" fill="#E6EBED"/>
<path d="M118.113 108.115H117.423V118.221H118.113V108.115Z" fill="#E6EBED"/>
<path d="M158.943 126.25H158.254V136.356H158.943V126.25Z" fill="#E6EBED"/>
<path d="M160.668 126.25H159.979V136.356H160.668V126.25Z" fill="#E6EBED"/>
<path d="M162.461 126.25H161.771V136.356H162.461V126.25Z" fill="#E6EBED"/>
<path d="M164.186 126.25H163.496V136.356H164.186V126.25Z" fill="#E6EBED"/>
<path fill-rule="evenodd" clip-rule="evenodd" d="M148.109 85.3516V102.448L169.766 123.697V179.861C169.536 179.632 169.306 179.399 169.076 179.164V123.974L148.109 103.348V113.038H154.386V115.392H148.109V123.282H154.661V136.71H148.109V138.787H164.8V174.473C164.571 174.204 164.34 173.932 164.11 173.656V173.533H164.008C163.912 173.418 163.816 173.302 163.72 173.187H164.11V171.249H162.155C162.064 171.134 161.973 171.018 161.882 170.903H164.11V168.965H160.393C160.307 168.85 160.22 168.734 160.133 168.618H164.11V166.68H158.709C158.626 166.565 158.543 166.45 158.46 166.334H164.11V164.396H157.092C157.012 164.281 156.933 164.166 156.853 164.05H164.11V162.112H152.454V161.766H164.11V159.828H152.454V159.482H164.11V157.544H152.454V157.198H164.11V155.259H152.454V154.914H164.11V152.975H152.454V152.63H164.11V150.691H152.454V150.345H164.11V148.407H152.454V148.061H164.11V146.123H152.454V145.777H164.11V143.839H152.454V143.493H164.11V141.555H152.454V141.209H164.11V139.478H147.833V163.393C147.719 163.409 147.604 163.427 147.489 163.443V139.548H147.419V136.779V123.351V115.46V113.107V102.586V101.756V85.3516H148.109ZM147.419 201.179V201.565H147.764H169.766V201.165L147.419 201.179ZM153.696 113.73H148.109V114.699H153.696V113.73ZM153.972 123.974H148.109V136.018H153.972V123.974Z" fill="#07151F"/>
<path fill-rule="evenodd" clip-rule="evenodd" d="M208.809 46.6523H204.119V46.9984H208.809V46.6523ZM197.36 91.0891H202.188V91.4351H197.36V91.0891ZM202.188 93.5809H197.36V93.9268H202.188V93.5809ZM192.946 126.666H199.292V127.012H192.946V126.666ZM192.946 129.088H199.292V129.435H192.946V129.088ZM199.292 134.003H192.946V134.349H199.292V134.003ZM192.946 131.581H199.292V131.927H192.946V131.581ZM199.292 138.917H192.946V139.264H199.292V138.917ZM192.946 136.426H199.292V136.772H192.946V136.426ZM199.292 143.832H192.946V144.178H199.292V143.832ZM192.946 141.34H199.292V141.686H192.946V141.34ZM199.292 153.591H192.946V153.937H199.292V153.591ZM192.946 151.168H199.292V151.514H192.946V151.168ZM199.292 148.746H192.946V149.092H199.292V148.746ZM192.946 146.255H199.292V146.6H192.946V146.255ZM197.084 159.682H190.463V160.028H197.084V159.682ZM190.463 157.19H197.084V157.536H190.463V157.19ZM197.084 164.597H190.463V164.943H197.084V164.597ZM190.463 162.104H197.084V162.451H190.463V162.104ZM197.084 169.511H190.463V169.857H197.084V169.511ZM190.463 167.019H197.084V167.365H190.463V167.019ZM197.084 174.356H190.463V174.702H197.084V174.356ZM190.463 171.934H197.084V172.279H190.463V171.934ZM197.084 176.848H190.463V177.194H197.084V176.848ZM212.258 139.817H218.879V140.163H212.258V139.817ZM218.879 137.394H212.258V137.741H218.879V137.394ZM212.258 144.732H218.879V145.078H212.258V144.732ZM218.879 142.309H212.258V142.655H218.879V142.309ZM212.258 149.646H218.879V149.992H212.258V149.646ZM218.879 147.154H212.258V147.5H218.879V147.154ZM212.258 154.56H218.879V154.906H212.258V154.56ZM218.879 152.068H212.258V152.415H218.879V152.068ZM212.258 161.897H218.879V162.243H212.258V161.897ZM218.879 159.406H212.258V159.752H218.879V159.406ZM212.258 156.983H218.879V157.329H212.258V156.983ZM202.188 98.4954H197.36V98.8414H202.188V98.4954ZM197.36 96.0032H202.188V96.3497H197.36V96.0032ZM202.188 103.409H197.36V103.755H202.188V103.409ZM197.36 100.918H202.188V101.264H197.36V100.918ZM202.188 108.255H197.36V108.601H202.188V108.255ZM197.36 105.832H202.188V106.178H197.36V105.832ZM202.188 122.998H197.36V123.344H202.188V122.998ZM197.36 120.506H202.188V120.852H197.36V120.506ZM202.188 113.169H197.36V113.515H202.188V113.169ZM197.36 110.746H202.188V111.092H197.36V110.746ZM202.188 118.083H197.36V118.43H202.188V118.083ZM197.36 115.661H202.188V116.007H197.36V115.661ZM204.119 49.0749H208.809V49.421H204.119V49.0749ZM208.809 54.6815H200.74V55.0275H208.809V54.6815ZM200.74 59.5959H208.809V59.9419H200.74V59.5959ZM208.809 57.1731H200.74V57.5196H208.809V57.1731ZM200.74 64.5099H208.809V64.8565H200.74V64.5099ZM208.809 62.0182H200.74V62.3648H208.809V62.0182ZM200.74 81.676H204.671V82.0219H200.74V81.676ZM204.671 79.1837H200.74V79.5302H204.671V79.1837ZM200.74 86.59H204.671V86.9359H200.74V86.59ZM204.671 84.0982H200.74V84.4442H204.671V84.0982ZM200.74 69.4245H204.671V69.7705H200.74V69.4245ZM208.809 67.2788V66.9328H204.671H200.74V67.2788H204.671H208.809ZM200.74 76.7614H204.671V77.1073H200.74V76.7614ZM204.671 74.3385H200.74V74.685H204.671V74.3385ZM200.74 71.8468H204.671V72.1933H200.74V71.8468ZM211.292 73.3006H206.464V73.6466H211.292V73.3006ZM206.464 70.8778H211.292V71.2237H206.464V70.8778ZM211.292 78.2146H206.464V78.5612H211.292V78.2146ZM206.464 75.7923H211.292V76.1383H206.464V75.7923ZM211.292 83.1292H206.464V83.4752H211.292V83.1292ZM206.464 80.7069H211.292V81.0529H206.464V80.7069ZM211.292 88.0438H206.464V88.3898H211.292V88.0438ZM206.464 85.5521H211.292V85.898H206.464V85.5521ZM211.292 92.9578H206.464V93.3038H211.292V92.9578ZM206.464 90.4661H211.292V90.812H206.464V90.4661ZM211.292 97.803H206.464V98.1489H211.292V97.803ZM206.464 95.3807H211.292V95.7266H206.464V95.3807ZM216.051 105.071H209.085V105.417H216.051V105.071ZM209.085 102.648H216.051V102.994H209.085V102.648ZM216.051 109.985H209.085V110.331H216.051V109.985ZM209.085 107.563H216.051V107.909H209.085V107.563ZM216.051 114.9H209.085V115.246H216.051V114.9ZM209.085 112.407H216.051V112.754H209.085V112.407ZM216.051 119.814H209.085V120.16H216.051V119.814ZM209.085 117.322H216.051V117.668H209.085V117.322ZM216.051 124.659H209.085V125.005H216.051V124.659ZM209.085 122.236H216.051V122.582H209.085V122.236ZM216.051 132.065H209.085V132.411H216.051V132.065ZM209.085 129.573H216.051V129.919H209.085V129.573ZM216.051 127.15H209.085V127.497H216.051V127.15ZM187.705 183.354H194.188V183.7H187.705V183.354ZM194.188 180.863H187.705V181.208H194.188V180.863ZM187.705 188.268H194.188V188.615H187.705V188.268ZM194.188 185.777H187.705V186.122H194.188V185.777ZM187.846 193.113H194.188V193.459H188.518C188.294 193.345 188.069 193.23 187.846 193.113ZM193.82 195.952H194.188V195.605H193.034C193.295 195.722 193.557 195.837 193.82 195.952ZM194.188 190.691H187.705V191.037H194.188V190.691ZM215.085 187.992H223.017V188.338H215.085V187.992ZM223.017 192.837H215.085V193.183H223.017V192.837ZM215.085 190.414H223.017V190.761H215.085V190.414ZM223.017 197.751H215.085V198.097H223.017V197.751ZM215.085 195.329H223.017V195.674H215.085V195.329ZM223.017 168.334H215.085V168.68H223.017V168.334ZM215.085 165.912H223.017V166.258H215.085V165.912ZM223.017 173.249H215.085V173.594H223.017V173.249ZM215.085 170.826H223.017V171.172H215.085V170.826ZM223.017 178.163H215.085V178.509H223.017V178.163ZM215.085 175.74H223.017V176.086H215.085V175.74ZM223.017 185.5H215.085V185.846H223.017V185.5ZM215.085 183.077H223.017V183.423H215.085V183.077ZM223.017 180.585H215.085V180.931H223.017V180.585Z" fill="#E6EBED"/>
<path fill-rule="evenodd" clip-rule="evenodd" d="M220.81 134.486V163.35H224.741V201.764H185.911V201.155L207.326 201.142C206.523 200.858 205.729 200.576 204.947 200.295V70.9464C204.947 69.1466 206.464 68.4547 207.499 68.4547H209.223V52.3965H203.844V52.7426H200.188V88.7349H201.43C202.464 88.7349 203.981 89.4268 203.981 91.2266V199.946C203.541 199.787 203.105 199.627 202.671 199.467V91.2266C202.671 90.1887 201.705 90.1193 201.498 90.1193H197.361H197.015V123.897H198.533C199.567 123.897 201.085 124.589 201.085 126.388V198.877C200.598 198.693 200.116 198.51 199.636 198.325V126.388C199.636 125.35 198.739 125.281 198.464 125.281H193.222H192.877L192.808 154.49H196.188C197.222 154.49 198.739 155.182 198.739 156.982V197.977C198.3 197.805 197.863 197.632 197.429 197.458V157.051C197.429 156.013 196.533 155.943 196.257 155.943H192.877H190.946H190.118V178.093H193.567C194.464 178.162 196.119 178.716 196.119 180.585V196.925C195.679 196.743 195.242 196.561 194.808 196.376V180.585C194.808 179.546 193.774 179.477 193.636 179.477H190.187H187.428V192.895C186.919 192.626 186.414 192.353 185.911 192.074V178.093H188.739V154.56H190.946H191.498V123.897H195.636V88.7349H198.878V51.3583H202.533V0H205.361V23.6026H207.085V43.8829H210.672V68.4547H212.879V99.8096H217.844V134.486H220.81ZM219.431 163.35V135.802L217.155 135.871H213.016C212.741 135.871 211.844 136.01 211.844 136.979V200.449H213.43V165.841C213.43 164.042 214.948 163.35 215.982 163.35H219.431ZM216.465 134.486V101.194L211.499 101.125H209.913C209.637 101.125 208.741 101.263 208.741 102.232V200.449H210.465V136.979C210.465 135.179 211.982 134.486 213.016 134.486H216.465ZM211.431 99.8096V69.8391H209.913H207.499C207.223 69.8391 206.326 69.9774 206.326 70.9464V200.449H207.292V102.301C207.292 100.502 208.809 99.8096 209.844 99.8096H211.431ZM209.292 51.7736V45.2673H205.706V44.9212H203.913V51.7736H209.292ZM203.981 24.987V1.38432L203.913 44.229H205.706V24.987H203.981ZM214.81 200.449H223.431V164.734H220.12H215.982C215.706 164.734 214.81 164.872 214.81 165.841V200.449Z" fill="#07151F"/>
<path fill-rule="evenodd" clip-rule="evenodd" d="M133.356 84.2367V67.1406H134.045V83.5447V84.3755V94.896V97.2494V105.14V118.568V121.336H133.976V169.469C133.862 169.491 133.746 169.513 133.631 169.536V121.268H117.355V122.998H129.01V123.344H117.355V125.282H129.01V125.628H117.355V127.566H129.01V127.912H117.355V129.85H129.01V130.196H117.355V132.135H129.01V132.481H117.355V134.419H129.01V134.765H117.355V136.703H129.01V137.049H117.355V138.918H129.01V139.264H117.355V141.202H129.01V141.548H117.355V143.486H129.01V143.832H117.355V145.77H129.01V146.116H117.355V148.054H129.01V148.4H117.355V150.338H129.01V150.684H117.355V152.622H129.01V152.968H117.355V154.837H129.01V155.183H117.355V157.121H129.01V157.468H117.355V159.406H129.01V159.752H117.355V161.69H129.01V162.036H117.355V163.974H129.01V164.32H117.355V166.258H129.01V166.604H117.355V168.542H129.01V168.888H117.355V170.757H128.54C128.147 170.868 127.756 170.983 127.364 171.103H117.355V173.041H121.918C121.642 173.154 121.366 173.27 121.091 173.387H117.355V175.143C117.123 175.262 116.894 175.383 116.664 175.505V120.644H133.356V118.568H126.804V105.14H133.356V97.2494H127.079V94.896H133.356V85.2057L112.388 105.832V178.054C112.157 178.208 111.927 178.364 111.699 178.521V105.555L133.356 84.2367ZM111.699 201.203V201.351H133.701H134.045V201.188L111.699 201.203ZM133.356 96.5575V95.5885H127.769V96.5575H133.356ZM133.356 117.876V105.832H127.493V117.876H133.356Z" fill="#E6EBED"/>
<path d="M156.218 163.973L155.598 162.866L155.529 158.09H154.839V161.897V165.081H141.321C141.183 165.081 137.734 165.012 136.079 166.603C135.528 167.158 135.183 167.919 135.183 168.68V169.511C130.769 170.48 126.148 171.864 121.595 173.802C108.008 179.686 99.5249 188.753 96.352 200.865L96.145 201.766H207.119L207.188 200.381C173.944 196.228 156.425 164.251 156.218 163.973ZM172.289 196.643H189.463C190.98 197.335 192.635 198.028 194.221 198.651H178.082C176.013 198.028 174.082 197.405 172.289 196.643ZM98.5593 198.997H109.181C108.422 199.689 107.939 200.174 107.663 200.45H98.0762C98.2832 199.896 98.4209 199.481 98.5593 198.997ZM107.318 185.015H150.908V186.469C147.459 186.469 144.287 186.677 141.252 186.953H105.456C106.077 186.33 106.698 185.638 107.318 185.015ZM171.53 184.669H159.943H156.288V182.731H169.392C170.082 183.354 170.841 184.046 171.53 184.669ZM154.977 196.159H152.287V192.214H154.977V196.159ZM154.977 186.815H152.287V182.869H154.977V186.815ZM154.977 182.177H152.287V178.232H154.977V182.177ZM154.977 177.54H152.287V173.594H154.977V177.54ZM152.287 191.452V187.507H154.977V191.452H152.287ZM156.357 186.884V185.015H160.012H171.944C172.703 185.708 173.461 186.33 174.289 187.023H156.495C156.425 186.953 156.357 186.884 156.357 186.884ZM156.357 178.094H164.978C165.53 178.717 166.151 179.409 166.771 180.101H160.012H156.357V178.094ZM156.357 177.748V175.74H160.012H162.978C163.53 176.363 164.082 177.055 164.702 177.748H156.357ZM159.943 175.394H156.288V173.387H160.978C161.46 174.01 162.012 174.702 162.564 175.394H159.943ZM156.357 173.11V171.103H159.322C159.805 171.726 160.288 172.418 160.839 173.11H156.357ZM156.357 170.757V168.68V166.742C156.978 167.78 157.943 169.165 159.047 170.757H156.357ZM154.977 172.902H152.287V168.749C153.184 168.749 154.081 168.68 154.977 168.68V172.902ZM150.908 170.757H136.217C141.114 169.718 146.08 169.095 150.908 168.819V170.757ZM150.908 171.103V173.11H127.734C130.01 172.349 132.355 171.656 134.7 171.103H150.908ZM150.908 173.456V175.464H121.802C123.389 174.771 125.044 174.079 126.768 173.456H150.908ZM150.908 175.74V177.748H117.181C118.423 177.055 119.733 176.363 121.044 175.74H150.908ZM150.908 178.094V180.101H113.388C114.422 179.409 115.457 178.717 116.56 178.094H150.908ZM150.908 180.378V182.385H110.284C111.112 181.693 112.008 181.07 112.905 180.378H150.908ZM150.908 182.731V184.738H107.663C108.353 184.046 109.112 183.423 109.87 182.731H150.908ZM138.355 187.368C134.7 187.853 131.458 188.545 128.561 189.376H103.594C104.077 188.683 104.628 188.06 105.18 187.368H138.355ZM127.32 189.653C125.251 190.276 123.32 190.967 121.595 191.66H102.008C102.422 190.967 102.904 190.345 103.318 189.653H127.32ZM120.767 192.006C119.25 192.629 117.871 193.321 116.56 194.013H100.697C101.042 193.321 101.387 192.698 101.801 192.006H120.767ZM115.94 194.29C114.698 194.982 113.595 195.605 112.698 196.297H99.5935C99.8696 195.605 100.214 194.982 100.49 194.29H115.94ZM112.146 196.643C111.112 197.335 110.215 198.028 109.526 198.651H98.6279C98.8349 197.958 99.111 197.335 99.3865 196.643H112.146ZM109.663 200.45C113.25 197.197 125.665 188.06 150.908 187.922V200.45H109.663ZM152.287 196.851H154.977V200.45H152.287V196.851ZM174.634 187.368C175.462 188.06 176.289 188.683 177.186 189.376H174.151H159.322C158.219 188.545 157.391 187.853 156.839 187.368H174.634ZM174.22 189.653H177.668C178.565 190.345 179.531 190.967 180.496 191.66H162.633C161.529 190.967 160.564 190.276 159.736 189.653H174.22ZM181.048 192.006C182.083 192.698 183.187 193.321 184.29 194.013H178.565H174.22H166.633C165.392 193.321 164.288 192.698 163.254 192.006H181.048ZM174.22 194.29H178.565H184.911C186.152 194.982 187.394 195.674 188.704 196.297H171.461C169.944 195.674 168.564 194.982 167.254 194.29H174.22ZM169.047 182.385H156.357V180.378H160.012H167.116C167.737 181.07 168.357 181.693 169.047 182.385ZM136.01 168.68C136.01 168.057 136.217 167.504 136.7 167.088C138.148 165.704 141.39 165.704 141.459 165.704H154.977V165.981V167.296C151.115 167.296 144.08 167.642 136.01 169.372V168.68ZM156.357 200.45V188.753C158.77 190.76 164.702 195.328 173.117 198.512H171.392V199.205H173.185V198.581C175.186 199.343 177.324 199.966 179.531 200.52H156.357V200.45ZM191.187 200.45C186.98 200.45 183.048 199.896 179.462 198.997H195.187C196.773 199.551 198.36 200.035 200.015 200.45H191.187Z" fill="#07151F"/>
<path fill-rule="evenodd" clip-rule="evenodd" d="M139.321 189.168H137.528V189.86H139.321V189.168ZM141.114 189.168H142.908V189.86H141.114V189.168ZM146.563 189.168H144.77V189.86H146.563V189.168ZM150.149 189.168H148.356V189.86H150.149V189.168ZM150.149 191.452H148.356V192.144H150.149V191.452ZM148.356 193.805H150.149V194.497H148.356V193.805ZM150.149 196.158H148.356V196.851H150.149V196.158ZM148.356 198.443H150.149V199.135H148.356V198.443ZM144.77 191.452H146.563V192.144H144.77V191.452ZM146.563 193.805H144.77V194.497H146.563V193.805ZM144.77 196.158H146.563V196.851H144.77V196.158ZM146.563 198.443H144.77V199.135H146.563V198.443ZM142.908 191.452H141.114V192.144H142.908V191.452ZM141.114 193.805H142.908V194.497H141.114V193.805ZM142.908 196.158H141.114V196.851H142.908V196.158ZM141.114 198.443H142.908V199.135H141.114V198.443ZM137.528 191.452H139.321V192.144H137.528V191.452ZM139.321 193.805H137.528V194.497H139.321V193.805ZM137.528 196.158H139.321V196.851H137.528V196.158ZM139.321 198.443H137.528V199.135H139.321V198.443ZM133.872 191.452H135.665V192.144H133.872V191.452ZM135.665 193.805H133.872V194.497H135.665V193.805ZM133.872 196.158H135.665V196.851H133.872V196.158ZM135.665 198.443H133.872V199.135H135.665V198.443ZM130.286 191.452H132.079V192.144H130.286V191.452ZM132.079 193.805H130.286V194.497H132.079V193.805ZM130.286 196.158H132.079V196.851H130.286V196.158ZM132.079 198.443H130.286V199.135H132.079V198.443ZM126.63 193.805H128.424V194.497H126.63V193.805ZM128.424 196.158H126.63V196.851H128.424V196.158ZM126.63 198.443H128.424V199.135H126.63V198.443ZM169.599 198.443H167.806V199.135H169.599V198.443ZM164.15 196.158H165.944V196.851H164.15V196.158ZM165.944 198.443H164.15V199.135H165.944V198.443ZM160.564 193.805H162.357V194.497H160.564V193.805ZM162.357 196.158H160.564V196.851H162.357V196.158ZM160.564 198.443H162.357V199.135H160.564V198.443ZM158.702 191.452H156.909V192.144H158.702V191.452ZM156.909 193.805H158.702V194.497H156.909V193.805ZM158.702 196.158H156.909V196.851H158.702V196.158ZM156.909 198.443H158.702V199.135H156.909V198.443ZM124.837 193.805H123.044V194.497H124.837V193.805ZM123.044 196.158H124.837V196.851H123.044V196.158ZM124.837 198.443H123.044V199.135H124.837V198.443ZM119.388 196.158H121.181V196.851H119.388V196.158ZM121.181 198.443H119.388V199.135H121.181V198.443ZM115.802 198.443H117.595V199.135H115.802V198.443Z" fill="#E6EBED"/>
<path d="M256.985 95.2405V94.8945H240.639V95.2405C239.535 110.468 240.087 138.501 240.914 161.827H241.604C240.914 141.408 240.432 117.459 240.983 101.539H241.397C242.777 112.752 245.742 137.185 248.501 159.127H249.191C246.432 137.255 243.466 112.821 242.087 101.539H256.64C257.192 112.614 258.364 136.563 258.64 159.127H259.33C258.916 128.672 256.985 95.7947 256.985 95.2405ZM240.983 100.847C240.983 100.224 241.053 99.6703 241.053 99.0478C241.121 99.6014 241.19 100.155 241.26 100.847H240.983ZM241.949 100.847C241.604 98.217 241.397 96.3484 241.328 95.587H256.295C256.364 96.2789 256.433 98.1476 256.571 100.847H241.949Z" fill="#07151F"/>
<path fill-rule="evenodd" clip-rule="evenodd" d="M254.985 103.27H244.087V103.615H254.985V103.27ZM255.192 104.861H244.294V105.208H255.192V104.861ZM244.501 106.384H255.261V106.73H244.501V106.384ZM255.33 107.976H244.57V108.322H255.33V107.976ZM244.846 109.568H255.537V109.914H244.846V109.568ZM255.675 111.091H244.915V111.437H255.675V111.091ZM245.191 112.683H255.743V113.029H245.191V112.683ZM255.882 114.205H245.329V114.551H255.882V114.205ZM245.536 115.867H255.95V116.213H245.536V115.867ZM256.019 117.39H245.674V117.736H256.019V117.39ZM245.88 118.982H256.088V119.328H245.88V118.982ZM256.088 120.504H246.087V120.85H256.088V120.504ZM246.225 122.096H256.226V122.442H246.225V122.096ZM256.365 123.688H246.364V124.035H256.365V123.688ZM246.639 125.211H256.502V125.557H246.639V125.211ZM256.502 127.149V126.803H246.777V127.149H256.502ZM246.984 128.325H256.64V128.672H246.984V128.325ZM256.709 129.918H247.122V130.264H256.709V129.918ZM247.26 131.44H256.778V131.786H247.26V131.44ZM256.847 133.032H247.467V133.378H256.847V133.032ZM247.536 134.624H256.778V134.97H247.536V134.624ZM256.847 136.147H247.743V136.493H256.847V136.147ZM247.95 137.739H256.985V138.085H247.95V137.739ZM256.985 139.4H248.088V139.746H256.985V139.4ZM248.363 140.923H257.122V141.269H248.363V140.923ZM257.123 142.515H248.501V142.861H257.123V142.515ZM248.708 144.038H257.123V144.384H248.708V144.038ZM257.26 145.63H248.915V145.976H257.26V145.63ZM249.122 147.222H257.399V147.568H249.122V147.222ZM257.467 148.745H249.26V149.091H257.467V148.745ZM249.467 150.337H257.468V150.683H249.467V150.337Z" fill="#E6EBED"/>
<path d="M422.791 167.918V165.772V165.079V164.526H422.446C421.48 164.526 421.136 162.172 421.066 161.342H420.377C420.308 162.172 419.963 164.526 418.997 164.526H418.652V165.079V165.772V167.918H416.722V168.817H417.066C417.549 168.817 417.618 169.648 417.618 169.648V170.825H410.238V169.648C410.238 169.648 410.238 168.817 410.79 168.817H411.134V167.918H409.203V165.772V165.079V164.526H408.858C407.893 164.526 407.548 162.172 407.479 161.342H406.789C406.72 162.172 406.376 164.526 405.41 164.526H405.065V165.079V165.633H388.65V153.451C388.65 153.451 388.719 152.136 389.478 152.136H390.167V150.336H386.926V146.807V145.422V144.453H386.236C384.788 144.453 384.029 140.785 383.96 139.054H382.581C382.443 140.854 381.753 144.453 380.305 144.453H379.615V145.422V146.807V150.336H376.304V152.136H376.994C377.753 152.136 377.822 153.451 377.822 153.451V153.659H350.302V144.176C350.302 144.107 350.372 142.861 351.13 142.861H351.82V141.061H348.509V137.532V136.147V135.178H347.819C346.371 135.178 345.613 131.51 345.544 129.779H344.164C344.026 131.579 343.336 135.178 341.888 135.178H341.198V136.147V137.532V141.061H337.957V142.861H338.647C339.405 142.861 339.474 144.176 339.474 144.176V146.807H332.301V145.838H333.405V144.661L333.198 144.591C333.129 144.591 329.473 142.723 326.715 140.923V137.532H326.025V140.923C323.266 142.723 319.542 144.591 319.542 144.591L319.335 144.661V145.838H320.438V146.807H313.265V139.054C313.265 139.054 313.334 137.739 314.093 137.739H314.783V135.94H311.472V132.409V131.025V130.125H310.782C309.334 130.125 308.575 126.457 308.506 124.727H307.127C306.989 126.526 306.299 130.125 304.851 130.125H304.161V131.094V132.479V136.009H300.851V137.808H301.54C302.299 137.808 302.368 139.123 302.368 139.123V147.637H274.849V147.429C274.849 147.429 274.917 146.114 275.676 146.114H276.366V144.315H273.124V140.785V139.4V138.431H272.434C270.986 138.431 270.228 134.763 270.158 133.032H268.779C268.641 134.832 267.952 138.431 266.503 138.431H265.813V139.4V140.785V144.315H262.503V146.114H263.192C263.951 146.114 264.02 147.429 264.02 147.429V160.719H247.605V160.165V159.612H247.26C246.295 159.612 245.95 157.258 245.881 156.427H245.191C245.122 157.258 244.777 159.612 243.812 159.612H243.467V160.165V160.857V163.003H241.536V163.903H241.881C242.363 163.903 242.432 164.733 242.432 164.733V165.91H235.052V164.733C235.052 164.733 235.052 163.903 235.604 163.903H235.949V163.003H234.018V160.857V160.165V159.612H233.673C232.708 159.612 232.362 157.258 232.294 156.427H231.604C231.535 157.258 231.19 159.612 230.224 159.612H229.879V160.165V160.857V163.003H227.948V163.903H228.293C228.776 163.903 228.845 164.733 228.845 164.733V193.943H228.5V201.764H264.02H274.849H302.368H303.747H313.196V192.212C313.196 192.143 313.265 190.897 314.024 190.897H314.714V190.136H337.957V190.897H338.647C339.405 190.897 339.474 192.212 339.474 192.212V201.764H348.923H350.302H377.822H388.65H424.17V193.943H423.825V169.648C423.825 169.648 423.825 168.817 424.377 168.817H424.722V167.918H422.791ZM420.722 163.28C420.929 163.972 421.273 164.733 421.894 165.01H419.618C420.17 164.733 420.515 164.041 420.722 163.28ZM419.342 165.702H422.101V167.848H421.687C421.549 166.741 420.86 166.394 420.86 166.394L420.722 166.325L420.583 166.394C420.583 166.394 419.825 166.741 419.687 167.848H419.342V165.702ZM421.066 167.918H420.446C420.515 167.502 420.653 167.295 420.79 167.156C420.86 167.295 420.997 167.502 421.066 167.918ZM418.652 168.609H419.687H421.756H422.791H423.412C423.274 168.817 423.205 169.094 423.135 169.301H418.239C418.17 169.094 418.1 168.817 417.963 168.609H418.652ZM417.618 171.517V194.012H410.238V171.517H417.618ZM404.721 169.994H409.548V193.943H404.721V169.994ZM409.893 168.609C409.755 168.817 409.686 169.094 409.617 169.301H404.721C404.651 169.094 404.583 168.817 404.444 168.609H405.065H406.1H408.169H409.203H409.893ZM406.859 167.918C406.927 167.502 407.066 167.295 407.203 167.156C407.341 167.295 407.479 167.502 407.548 167.918H406.859ZM408.514 167.918H408.1C407.962 166.81 407.273 166.464 407.273 166.464L407.134 166.394L406.996 166.464C406.996 166.464 406.238 166.81 406.1 167.918H405.686V165.772H408.445V167.918H408.514ZM407.134 163.28C407.341 163.972 407.686 164.733 408.307 165.01H406.031C406.583 164.733 406.927 164.041 407.134 163.28ZM405.065 166.325V167.918H403.134V168.817H403.479C403.962 168.817 404.03 169.648 404.03 169.648V193.943H400.444V169.648H400.099V193.943H396.168V169.648H395.892V193.943H391.961V169.648H391.616V193.943H388.65V166.256H405.065V166.325ZM384.995 193.943H381.546V156.773C382.098 156.289 382.857 155.666 383.27 155.666C383.684 155.666 384.512 156.289 384.995 156.773V193.943ZM385.546 156.427C385.339 156.22 384.029 154.974 383.201 154.974C382.374 154.974 381.132 156.15 380.857 156.427L380.788 156.497V193.943H379.201V154.074H387.271V193.943H385.685V156.497L385.546 156.427ZM383.27 142.792C383.615 143.83 384.098 144.799 384.857 145.353H381.615C382.374 144.869 382.926 143.83 383.27 142.792ZM380.925 146.807H385.478V150.336H384.65C384.443 148.606 383.408 148.122 383.34 148.122L383.201 148.052L383.063 148.122C382.995 148.122 381.96 148.606 381.753 150.336H380.925V146.807ZM382.443 150.336C382.581 149.437 382.995 149.021 383.201 148.813C383.408 148.952 383.822 149.437 383.96 150.336H382.443ZM379.546 151.721H386.926H387.754C387.547 152.067 387.409 152.413 387.34 152.759H379.063C378.994 152.413 378.856 152.067 378.649 151.721H379.546ZM377.822 154.351V193.943H374.856V158.227H374.511V193.943H370.58V158.227H370.235V193.943H366.304V158.227H365.959V193.943H362.096V158.227H361.752V193.943H357.82V158.227H357.475V193.943H353.544V158.227H353.199V193.943H350.234V192.282C350.234 192.212 350.302 190.966 351.061 190.966H351.751V189.167H350.234V154.351H377.822ZM317.68 179.269C315.541 177.054 314.576 174.562 314.921 171.932C315.817 165.149 324.921 159.127 326.369 158.296C327.749 159.196 336.922 165.149 337.819 171.932C338.163 174.562 337.267 176.985 335.06 179.269L334.784 179.545L335.06 179.753C335.06 179.753 337.75 182.107 336.301 187.229L326.715 183.145V180.307H326.025V183.145L316.438 187.229C314.921 182.107 317.541 179.822 317.68 179.753L317.955 179.545L317.68 179.269ZM326.369 183.768L334.853 187.367H317.955L326.369 183.768ZM335.75 179.477C337.888 177.123 338.784 174.562 338.44 171.863C337.405 164.18 326.99 157.881 326.508 157.604L326.301 157.466L326.094 157.604C325.68 157.881 315.196 164.18 314.162 171.863C313.817 174.631 314.714 177.193 316.852 179.477C316.162 180.238 314.369 182.73 315.679 187.367H313.127V154.351H339.405V187.367H336.853C338.301 182.73 336.508 180.238 335.75 179.477ZM311.955 191.589H303.678C303.61 191.243 303.471 190.897 303.264 190.551H312.299C312.162 190.897 312.024 191.243 311.955 191.589ZM309.541 189.167H306.092V149.437C306.575 148.883 307.471 148.191 307.817 148.191C308.231 148.191 309.058 148.883 309.541 149.437V189.167ZM310.23 189.167V149.16L310.162 149.091C309.955 148.813 308.713 147.498 307.817 147.498C306.989 147.498 305.747 148.813 305.472 149.091L305.402 149.16V189.167H303.816V139.746H311.886V189.167H310.23ZM316.024 152.205H314.162V150.544C314.437 150.336 314.921 149.99 315.128 149.99C315.334 149.99 315.748 150.267 316.093 150.544V152.205H316.024ZM320.438 152.897H323.68H329.128H332.37H339.543V153.659H313.265V152.897H320.438ZM319.197 152.205H317.266V150.544C317.541 150.336 318.024 149.99 318.231 149.99C318.438 149.99 318.852 150.267 319.197 150.544V152.205ZM328.37 152.205H324.3V148.537C324.921 148.052 325.887 147.429 326.301 147.429C326.715 147.429 327.749 148.052 328.301 148.537V152.205H328.37ZM335.405 152.205H333.542V150.544C333.819 150.336 334.301 149.99 334.508 149.99C334.715 149.99 335.129 150.267 335.474 150.544V152.205H335.405ZM338.577 152.205H336.715V150.544C336.991 150.336 337.474 149.99 337.681 149.99C337.888 149.99 338.301 150.267 338.647 150.544V152.205H338.577ZM340.853 144.869H348.923V189.167H347.337V149.16L347.268 149.091C347.061 148.813 345.75 147.498 344.923 147.498C344.026 147.498 342.854 148.813 342.578 149.091L342.509 149.16V189.167H340.922V144.869H340.853ZM346.647 189.167H343.198V149.437C343.682 148.883 344.578 148.191 344.923 148.191C345.267 148.191 346.164 148.883 346.647 149.437V189.167ZM340.371 190.551H349.406C349.199 190.897 349.061 191.243 348.992 191.589H340.716C340.716 191.243 340.578 190.897 340.371 190.551ZM344.923 133.586C345.267 134.625 345.75 135.594 346.509 136.147H343.268C344.026 135.594 344.578 134.625 344.923 133.586ZM342.647 137.532H347.199V141.061H346.371C346.164 139.331 345.06 138.847 345.06 138.847L344.923 138.777L344.785 138.847C344.716 138.847 343.682 139.331 343.475 141.061H342.647V137.532ZM344.095 141.061C344.233 140.162 344.647 139.746 344.854 139.539C345.06 139.677 345.474 140.162 345.613 141.061H344.095ZM341.267 142.446H348.578H349.406C349.199 142.792 349.061 143.138 348.992 143.484H340.716C340.646 143.138 340.509 142.792 340.302 142.446H341.267ZM339.474 147.498V152.205H338.922V150.406L338.854 150.336C338.715 150.198 338.026 149.644 337.612 149.644C337.198 149.644 336.508 150.198 336.371 150.336L336.301 150.406V152.205H335.681V150.406L335.611 150.336C335.474 150.198 334.784 149.644 334.37 149.644C333.956 149.644 333.267 150.198 333.129 150.336L333.06 150.406V152.205H332.163V147.498H339.474ZM320.024 145.145C320.852 144.661 323.956 143.069 326.369 141.477C328.853 143.069 331.956 144.661 332.715 145.076V145.145H332.301H320.438H320.024ZM331.611 145.838V152.205H329.059V148.191L328.921 148.052C328.784 147.914 327.197 146.737 326.369 146.737C325.473 146.737 323.956 147.914 323.749 148.052L323.611 148.191V152.205H321.059V145.838H331.611ZM320.438 147.498V152.205H319.542V150.406L319.472 150.336C319.335 150.198 318.645 149.644 318.231 149.644C317.817 149.644 317.127 150.198 316.99 150.336L316.92 150.406V152.205H316.3V150.406L316.231 150.336C316.093 150.198 315.403 149.644 314.99 149.644C314.576 149.644 313.886 150.198 313.748 150.336L313.679 150.406V152.205H313.127V147.498H320.438ZM307.817 128.464C308.161 129.502 308.644 130.471 309.403 131.025H306.23C306.989 130.471 307.471 129.502 307.817 128.464ZM305.541 132.409H310.093V135.94H309.265C309.058 134.209 307.954 133.724 307.954 133.724L307.817 133.656L307.678 133.724C307.61 133.724 306.575 134.209 306.368 135.94H305.541V132.409ZM307.058 136.009C307.196 135.109 307.61 134.693 307.817 134.486C308.024 134.625 308.437 135.04 308.575 136.009H307.058ZM304.161 137.393H311.472H312.299C312.093 137.739 311.955 138.085 311.886 138.431H303.61C303.54 138.085 303.403 137.739 303.196 137.393H304.161ZM302.368 148.329V189.167H300.851V190.966H301.54C302.299 190.966 302.368 192.282 302.368 192.282V193.943H299.402V152.621H299.057V193.943H295.195V152.621H294.85V193.943H290.918V152.621H290.574V193.943H286.643V152.621H286.297V193.943H282.366V152.621H282.09V193.943H278.159V152.621H277.814V193.943H274.849V148.26H302.368V148.329ZM271.193 193.943H267.745V150.959C268.296 150.475 269.124 149.852 269.469 149.852C269.883 149.852 270.71 150.475 271.193 150.959V193.943ZM271.814 150.613C271.607 150.406 270.365 149.16 269.469 149.16C268.641 149.16 267.399 150.336 267.124 150.613L266.986 150.683V193.943H265.4V148.052H273.469V193.943H271.883V150.683L271.814 150.613ZM269.469 136.77C269.814 137.808 270.296 138.777 271.055 139.331H267.813C268.641 138.777 269.124 137.808 269.469 136.77ZM267.193 140.715H271.745V144.245H270.917C270.71 142.515 269.607 142.03 269.607 142.03L269.469 141.961L269.331 142.03C269.262 142.03 268.227 142.515 268.02 144.245H267.193V140.715ZM268.71 144.315C268.848 143.415 269.262 142.999 269.469 142.792C269.676 142.93 270.09 143.346 270.228 144.315H268.71ZM265.813 145.699H273.124H273.952C273.745 146.045 273.607 146.391 273.538 146.737H265.262C265.193 146.391 265.055 146.045 264.848 145.699H265.813ZM264.089 193.943H261.123V164.733H260.709V194.012H256.778V164.733H256.433V194.012H252.502V164.733H252.157V194.012H248.571V164.733C248.571 164.733 248.571 163.903 249.122 163.903H249.468V163.003H247.536V161.411H263.951V193.943H264.089ZM247.95 193.943H243.122V165.01H247.95V193.943ZM245.536 158.366C245.743 159.057 246.088 159.819 246.708 160.096H244.433C244.984 159.819 245.329 159.127 245.536 158.366ZM244.156 160.788H246.915V162.934H246.502C246.364 161.826 245.674 161.48 245.605 161.48L245.467 161.411L245.329 161.48C245.329 161.48 244.57 161.826 244.501 162.934H244.156V160.788ZM245.881 163.003H245.26C245.329 162.588 245.467 162.38 245.605 162.242C245.674 162.38 245.812 162.588 245.881 163.003ZM243.467 163.695H244.501H246.571H247.605H248.226C248.088 163.903 248.019 164.18 247.95 164.387H243.053C242.984 164.18 242.915 163.903 242.777 163.695H243.467ZM242.501 166.602V194.012H235.121V166.602H242.501ZM231.948 158.366C232.155 159.057 232.501 159.819 233.121 160.096H230.845C231.397 159.819 231.742 159.127 231.948 158.366ZM230.569 160.788H233.328V162.934H232.914C232.776 161.826 232.087 161.48 232.018 161.48L231.88 161.411L231.742 161.48C231.742 161.48 230.983 161.826 230.914 162.934H230.5V160.788H230.569ZM232.294 163.003H231.673C231.742 162.588 231.88 162.38 232.018 162.242C232.087 162.38 232.225 162.588 232.294 163.003ZM229.879 163.695H230.914H232.983H234.018H234.639C234.5 163.903 234.432 164.18 234.363 164.387H229.466C229.397 164.18 229.328 163.903 229.19 163.695H229.879ZM229.604 165.079H234.432V194.012H229.604V165.079ZM236.225 200.449H232.638V197.957C233.19 197.611 234.018 197.126 234.432 197.126C234.845 197.126 235.673 197.611 236.225 197.957V200.449ZM242.639 200.449H239.053V197.957C239.605 197.611 240.432 197.126 240.846 197.126C241.26 197.126 242.087 197.611 242.639 197.957V200.449ZM249.054 200.449H245.467V197.957C246.018 197.611 246.846 197.126 247.26 197.126C247.674 197.126 248.502 197.611 249.054 197.957V200.449ZM255.467 200.449H251.881V197.957C252.433 197.611 253.261 197.126 253.675 197.126C254.089 197.126 254.916 197.611 255.467 197.957V200.449ZM261.882 200.449H258.296V197.957C258.847 197.611 259.675 197.126 260.088 197.126C260.502 197.126 261.33 197.611 261.882 197.957V200.449ZM262.572 200.449V197.542L262.434 197.473C262.296 197.334 260.916 196.365 260.088 196.365C259.261 196.365 257.882 197.334 257.744 197.473L257.606 197.542V200.449H256.157V197.542L256.02 197.473C255.881 197.334 254.502 196.365 253.675 196.365C252.847 196.365 251.467 197.334 251.33 197.473L251.192 197.542V200.449H249.743V197.542L249.605 197.473C249.467 197.334 248.088 196.365 247.26 196.365C246.432 196.365 245.053 197.334 244.915 197.473L244.777 197.542V200.449H243.329V197.542L243.191 197.473C243.053 197.334 241.674 196.365 240.846 196.365C240.018 196.365 238.639 197.334 238.501 197.473L238.363 197.542V200.449H236.915V197.542L236.776 197.473C236.639 197.334 235.259 196.365 234.432 196.365C233.604 196.365 232.225 197.334 232.087 197.473L231.948 197.542V200.449H229.949V195.396H264.089V200.449H262.572ZM271.262 200.449H267.675V197.957C268.227 197.611 269.055 197.126 269.469 197.126C269.883 197.126 270.71 197.611 271.262 197.957V200.449ZM271.952 200.449V197.542L271.814 197.473C271.676 197.334 270.296 196.365 269.469 196.365C268.641 196.365 267.262 197.334 267.124 197.473L266.986 197.542V200.449H265.469V195.396H273.538V200.449H271.952ZM281.125 200.449H277.538V197.957C278.09 197.611 278.918 197.126 279.332 197.126C279.745 197.126 280.573 197.611 281.125 197.957V200.449ZM287.539 200.449H283.953V197.957C284.505 197.611 285.332 197.126 285.746 197.126C286.16 197.126 286.987 197.611 287.539 197.957V200.449ZM293.954 200.449H290.367V197.957C290.918 197.611 291.746 197.126 292.16 197.126C292.574 197.126 293.402 197.611 293.954 197.957V200.449ZM300.367 200.449H296.781V197.957C297.333 197.611 298.161 197.126 298.575 197.126C298.988 197.126 299.816 197.611 300.367 197.957V200.449ZM302.368 200.449H301.057V197.542L300.92 197.473C300.781 197.334 299.402 196.365 298.575 196.365C297.747 196.365 296.367 197.334 296.229 197.473L296.092 197.542V200.449H294.643V197.542L294.505 197.473C294.367 197.334 292.988 196.365 292.16 196.365C291.332 196.365 289.953 197.334 289.815 197.473L289.677 197.542V200.449H288.229V197.542L288.091 197.473C287.953 197.334 286.574 196.365 285.746 196.365C284.918 196.365 283.539 197.334 283.401 197.473L283.263 197.542V200.449H281.815V197.542L281.676 197.473C281.539 197.334 280.159 196.365 279.332 196.365C278.504 196.365 277.125 197.334 276.987 197.473L276.848 197.542V200.449H274.917V195.396H302.437V200.449H302.368ZM310.368 200.449H305.334V196.504C306.023 196.019 307.265 195.327 307.885 195.327C308.437 195.327 309.679 196.019 310.437 196.504V200.449H310.368ZM311.886 200.449H311.058V196.157L310.92 196.088C310.713 195.95 308.851 194.634 307.817 194.634C306.782 194.634 304.92 195.95 304.713 196.088L304.575 196.157V200.449H303.747V194.012V192.974H311.817V200.449H311.886ZM314.783 189.513V189.167H313.265V188.059H316.024L316.093 188.198L316.369 188.059H336.508L336.784 188.198L336.853 188.059H339.612V189.167H337.957V189.513H314.783ZM347.406 200.449H342.371V196.504C343.061 196.019 344.302 195.327 344.923 195.327C345.474 195.327 346.716 196.019 347.475 196.504V200.449H347.406ZM348.923 200.449H348.096V196.157L347.957 196.088C347.75 195.95 345.888 194.634 344.854 194.634C343.819 194.634 341.957 195.95 341.75 196.088L341.612 196.157V200.449H340.785V192.974H348.854V194.012V200.449H348.923ZM355.958 200.449H352.371V197.888C352.924 197.542 353.751 197.057 354.165 197.057C354.579 197.057 355.406 197.542 355.958 197.888V200.449ZM362.373 200.449H358.786V197.888C359.337 197.542 360.165 197.057 360.579 197.057C360.993 197.057 361.82 197.542 362.373 197.888V200.449ZM368.786 200.449H365.2V197.888C365.752 197.542 366.58 197.057 366.994 197.057C367.407 197.057 368.235 197.542 368.786 197.888V200.449ZM375.201 200.449H371.615V197.888C372.166 197.542 372.994 197.057 373.407 197.057C373.821 197.057 374.649 197.542 375.201 197.888V200.449ZM375.89 200.449V197.542L375.753 197.473C375.615 197.334 374.166 196.365 373.407 196.365C372.58 196.365 371.201 197.334 371.062 197.473L370.925 197.542V200.449H369.477V197.542L369.338 197.473C369.2 197.334 367.752 196.365 366.994 196.365C366.166 196.365 364.786 197.334 364.649 197.473L364.51 197.542V200.449H363.062V197.542L362.924 197.473C362.786 197.334 361.338 196.365 360.579 196.365C359.751 196.365 358.372 197.334 358.234 197.473L358.096 197.542V200.449H356.648V197.542L356.51 197.473C356.372 197.334 354.923 196.365 354.165 196.365C353.337 196.365 351.958 197.334 351.82 197.473L351.682 197.542V200.449H350.372V195.396H377.891V200.449H375.89ZM385.064 200.449H381.408V197.888C381.96 197.542 382.788 197.057 383.201 197.057C383.615 197.057 384.443 197.542 384.995 197.888V200.449H385.064ZM385.753 200.449V197.542L385.616 197.473C385.478 197.334 384.029 196.365 383.27 196.365C382.443 196.365 381.064 197.334 380.925 197.473L380.788 197.542V200.449H379.27V195.396H387.34V200.449H385.753ZM394.444 200.449H390.857V197.888C391.409 197.542 392.237 197.057 392.65 197.057C393.064 197.057 393.892 197.542 394.444 197.888V200.449ZM400.858 200.449H397.271V197.888C397.824 197.542 398.651 197.057 399.065 197.057C399.479 197.057 400.306 197.542 400.858 197.888V200.449ZM407.273 200.449H403.686V197.888C404.237 197.542 405.065 197.057 405.479 197.057C405.893 197.057 406.72 197.542 407.273 197.888V200.449ZM413.686 200.449H410.1V197.888C410.652 197.542 411.48 197.057 411.894 197.057C412.307 197.057 413.135 197.542 413.686 197.888V200.449ZM420.101 200.449H416.515V197.888C417.066 197.542 417.894 197.057 418.307 197.057C418.721 197.057 419.549 197.542 420.101 197.888V200.449ZM422.791 200.449H420.79V197.542L420.653 197.473C420.515 197.334 419.066 196.365 418.307 196.365C417.48 196.365 416.101 197.334 415.962 197.473L415.825 197.542V200.449H414.376V197.542L414.238 197.473C414.1 197.334 412.652 196.365 411.894 196.365C411.066 196.365 409.686 197.334 409.548 197.473L409.41 197.542V200.449H407.962V197.542L407.824 197.473C407.686 197.334 406.238 196.365 405.479 196.365C404.651 196.365 403.272 197.334 403.134 197.473L402.996 197.542V200.449H401.548V197.542L401.41 197.473C401.272 197.334 399.823 196.365 399.065 196.365C398.237 196.365 396.858 197.334 396.72 197.473L396.582 197.542V200.449H395.134V197.542L394.995 197.473C394.858 197.334 393.409 196.365 392.65 196.365C391.823 196.365 390.443 197.334 390.306 197.473L390.167 197.542V200.449H388.719V195.396H422.791V200.449ZM418.307 193.943V169.994H423.135V193.943H418.307Z" fill="#07151F"/>
<path d="M324.438 192.074V201.28H328.232V192.074H326.37H324.438ZM327.887 200.934H324.783V192.42H326.3H327.818V200.934H327.887Z" fill="#E6EBED"/>
<path d="M318.989 192.074V201.28H322.782V192.074H320.92H318.989ZM322.369 200.934H319.334V192.42H320.852H322.369V200.934Z" fill="#E6EBED"/>
<path d="M314.162 192.074V201.28H317.334V192.074H315.748H314.162ZM316.99 200.934H314.507V192.42H315.748H316.99V200.934Z" fill="#E6EBED"/>
<path d="M330.025 192.074V201.28H333.818V192.074H331.956H330.025ZM333.473 200.934H330.37V192.42H331.887H333.404V200.934H333.473Z" fill="#E6EBED"/>
<path d="M335.474 192.074V201.28H338.646V192.074H337.06H335.474ZM338.301 200.934H335.818V192.42H337.06H338.301V200.934Z" fill="#E6EBED"/>
<path d="M457 200.449H0V201.834H457V200.449Z" fill="#8FE3DC"/>
<path d="M14.4841 201.212L13.7944 201.073C14.0013 199.897 14.5531 198.997 15.3808 198.512C16.4153 197.959 17.5189 198.097 18.0706 198.236C18.6224 197.267 19.588 196.574 20.7605 196.298C21.933 196.02 23.2434 196.159 24.209 196.782C25.3125 192.975 28.968 193.459 29.037 193.459L28.968 194.152C28.8301 194.152 25.6574 193.736 24.8297 197.405L24.6918 197.959L24.278 197.613C23.3814 196.921 22.1399 196.713 20.9674 196.99C19.8639 197.267 19.0362 197.89 18.6224 198.789L18.4845 199.066L18.2086 198.928C18.2086 198.928 16.8292 198.443 15.7946 199.066C15.1049 199.551 14.6911 200.243 14.4841 201.212Z" fill="#E6EBED"/>
<path d="M50.1414 169.303V156.498L41.3821 149.715V153.729H40.6234V149.715L31.8642 156.498V169.303L28.3467 172.833V201.696H37.1749V201.142H37.9336H44.141H44.8307V201.696H53.6589V172.833L50.1414 169.303ZM51.038 200.312H46.2101V174.909L42.7615 172.071V165.842L51.038 174.079V200.312ZM41.3821 154.145V168.541H40.6234V154.145H41.3821ZM39.244 172.002L35.7955 174.84V200.242H30.9676V174.009L39.244 165.773V172.002ZM29.6571 173.386L33.1746 169.856V157.121L39.1751 152.483V164.735L30.2089 173.664V200.242H29.6571V173.386ZM38.2095 200.796V197.543C38.2095 197.404 38.4853 195.259 40.9683 195.259C43.4513 195.259 43.7271 197.404 43.7271 197.543V200.796H38.2095ZM38.2095 176.917C38.2095 176.847 38.4853 174.909 40.9683 174.909C43.4513 174.909 43.7271 176.847 43.7271 176.917V196.505C43.3823 195.812 42.5546 194.982 40.9683 194.982C39.382 194.982 38.5543 195.812 38.2095 196.505V176.917ZM44.141 200.796V176.847C44.141 176.847 43.8651 174.494 41.0373 174.494C38.2095 174.494 37.9336 176.778 37.9336 176.847V197.474V200.727H37.1749V175.463L40.6234 172.625V168.749H41.3821V172.625L44.8307 175.463V200.727H44.141V200.796ZM52.3485 200.312H51.7277V173.732L42.7615 164.804V152.553L48.762 157.19V169.926L52.2795 173.456V200.312H52.3485Z" fill="#07151F"/>
</g>
<defs>
<clipPath id="clip0_558_397">
<rect width="457" height="202" fill="white"/>
</clipPath>
</defs>
</svg>
