<svg width="17" height="16" viewBox="0 0 17 16" fill="none" xmlns="http://www.w3.org/2000/svg">
<path d="M0 15.2508V5.35391C0 4.53516 0.422344 3.80078 1.06781 3.49766L8.18391 0.150781C8.38578 0.0539062 8.61156 0.0539062 8.81609 0.150781L15.9322 3.49766C16.5777 3.80078 17 4.53828 17 5.35391V15.2508C17 15.6664 16.7158 16.0008 16.3625 16.0008H15.0875C14.7342 16.0008 14.45 15.6664 14.45 15.2508V7.00078C14.45 6.44766 14.0702 6.00078 13.6 6.00078H3.4C2.92984 6.00078 2.55 6.44766 2.55 7.00078V15.2508C2.55 15.6664 2.26578 16.0008 1.9125 16.0008H0.6375C0.284219 16.0008 0 15.6664 0 15.2508ZM12.9625 16.0008H4.0375C3.68422 16.0008 3.4 15.6664 3.4 15.2508V13.5008H13.6V15.2508C13.6 15.6664 13.3158 16.0008 12.9625 16.0008ZM3.4 12.5008V10.5008H13.6V12.5008H3.4ZM3.4 9.50078V7.00078H13.6V9.50078H3.4Z" fill="#0A273B"/>
</svg>
