<svg width="27" height="24" viewBox="0 0 27 24" fill="none" xmlns="http://www.w3.org/2000/svg">
<path d="M0.00917816 11.9766C0.00917816 12.8203 0.712303 13.4813 1.50918 13.4813H3.00918L2.97637 20.9906C2.97637 21.1172 2.98574 21.2437 2.99981 21.3703V22.1297C2.99981 23.1656 3.83887 24.0047 4.87481 24.0047H5.62481C5.67637 24.0047 5.72793 24.0047 5.77949 24C5.84512 24.0047 5.91074 24.0047 5.97637 24.0047L7.49981 24H8.62481C9.66074 24 10.4998 23.1609 10.4998 22.125V21V18C10.4998 17.1703 11.1701 16.5 11.9998 16.5H14.9998C15.8295 16.5 16.4998 17.1703 16.4998 18V21V22.125C16.4998 23.1609 17.3389 24 18.3748 24H19.4998H20.9951C21.0654 24 21.1357 23.9953 21.2061 23.9906C21.2623 23.9953 21.3186 24 21.3748 24H22.1248C23.1607 24 23.9998 23.1609 23.9998 22.125V16.875C23.9998 16.8328 23.9998 16.7859 23.9951 16.7438V13.4766H25.4951C26.3389 13.4766 26.9951 12.8203 26.9951 11.9719C26.9951 11.55 26.8545 11.175 26.5264 10.8469L14.5123 0.375C14.1842 0.046875 13.8092 0 13.4811 0C13.1529 0 12.7779 0.09375 12.4967 0.328125L0.524803 10.8516C0.149803 11.1797 -0.0376968 11.5547 0.00917816 11.9766Z" fill="#0A273B"/>
</svg>
