<svg width="18" height="18" viewBox="0 0 18 18" fill="none" xmlns="http://www.w3.org/2000/svg">
<g clip-path="url(#clip0_5971_1155)">
<path d="M17.1683 2.61041C16.7124 2.52002 16.2693 2.81582 16.1785 3.27176L16.1313 3.50938C14.4515 1.32886 11.8328 0 8.99992 0C5.421 0 2.18249 2.11942 0.74932 5.39941C0.563239 5.82536 0.757617 6.32155 1.18357 6.50766C1.60952 6.69385 2.10578 6.4993 2.29183 6.07342C3.45707 3.40651 6.09016 1.68338 8.99992 1.68338C11.3297 1.68338 13.4812 2.78889 14.8449 4.5983L14.3428 4.49843C13.887 4.40797 13.4438 4.70384 13.353 5.15978C13.2624 5.61569 13.5584 6.05883 14.0143 6.14949L16.3711 6.61827C16.4256 6.62909 16.4806 6.63444 16.5354 6.63444C16.7005 6.63444 16.8635 6.58575 17.0029 6.49258C17.1886 6.36859 17.3174 6.17583 17.3609 5.95694L17.8296 3.60012C17.9202 3.14415 17.6242 2.70107 17.1683 2.61041Z" fill="#0A273B"/>
<path d="M16.8166 11.4924C16.3905 11.3062 15.8943 11.5007 15.7083 11.9267C14.5429 14.5936 11.91 16.3168 9.00031 16.3168C6.67063 16.3168 4.51922 15.2114 3.15565 13.4023L3.65758 13.5022C4.11359 13.5928 4.55655 13.2968 4.64736 12.8409C4.7381 12.385 4.44198 11.9419 3.98608 11.8511L1.62925 11.3823C1.4103 11.3389 1.18308 11.384 0.997425 11.508C0.811766 11.632 0.683025 11.8247 0.639502 12.0436L0.170626 14.4005C0.0799582 14.8564 0.376007 15.2996 0.831911 15.3903C0.887352 15.4013 0.942617 15.4066 0.997039 15.4066C1.3904 15.4066 1.74192 15.1295 1.82162 14.729L1.86898 14.4911C3.54877 16.6714 6.1674 18.0002 9.00031 18.0002C12.579 18.0002 15.8175 15.8808 17.2508 12.6008C17.4368 12.1747 17.2424 11.6786 16.8166 11.4924Z" fill="#0A273B"/>
<path d="M12.2646 7.0334L9.45898 5.20796C9 4.9997 9 4.99963 8.54091 5.20789L6.2963 6.66834L6.29539 6.6689L6.28618 6.67491L6.2841 6.67625L5.73528 7.03336C5.34568 7.28687 5.23533 7.80827 5.48877 8.19787C5.59385 8.35924 5.74509 8.47191 5.91367 8.53147V10.9636C5.91374 11.4285 6.2905 11.8053 6.75541 11.8053H11.2445C11.7093 11.8053 12.0862 11.4285 12.0862 10.9636V8.53143C12.2548 8.47191 12.406 8.35938 12.5111 8.19794C12.7646 7.80827 12.6543 7.28687 12.2646 7.0334Z" fill="#0A273B"/>
</g>
<defs>
<clipPath id="clip0_5971_1155">
<rect width="18" height="18" fill="white"/>
</clipPath>
</defs>
</svg>
