<svg width="16" height="22" viewBox="0 0 16 22" fill="none" xmlns="http://www.w3.org/2000/svg">
<g clip-path="url(#clip0_383_680)">
<path d="M8.9875 21.45C11.125 18.6914 16 12.0055 16 8.25C16 3.69531 12.4167 0 8 0C3.58333 0 0 3.69531 0 8.25C0 12.0055 4.875 18.6914 7.0125 21.45C7.525 22.1074 8.475 22.1074 8.9875 21.45ZM8 5.5C8.70724 5.5 9.38552 5.78973 9.88562 6.30546C10.3857 6.82118 10.6667 7.52065 10.6667 8.25C10.6667 8.97934 10.3857 9.67882 9.88562 10.1945C9.38552 10.7103 8.70724 11 8 11C7.29276 11 6.61448 10.7103 6.11438 10.1945C5.61428 9.67882 5.33333 8.97934 5.33333 8.25C5.33333 7.52065 5.61428 6.82118 6.11438 6.30546C6.61448 5.78973 7.29276 5.5 8 5.5Z" fill="white"/>
</g>
<defs>
<clipPath id="clip0_383_680">
<rect width="16" height="22" fill="white"/>
</clipPath>
</defs>
</svg>
