<svg width="30" height="40" viewBox="0 0 30 40" fill="none" xmlns="http://www.w3.org/2000/svg">
<path d="M16.3409 39C20.2273 33.9844 29.0909 21.8281 29.0909 15C29.0909 6.71875 22.5758 0 14.5455 0C6.51515 0 0 6.71875 0 15C0 21.8281 8.86364 33.9844 12.75 39C13.6818 40.1953 15.4091 40.1953 16.3409 39ZM14.5455 10C15.8314 10 17.0646 10.5268 17.9739 11.4645C18.8831 12.4021 19.3939 13.6739 19.3939 15C19.3939 16.3261 18.8831 17.5979 17.9739 18.5355C17.0646 19.4732 15.8314 20 14.5455 20C13.2596 20 12.0263 19.4732 11.1171 18.5355C10.2078 17.5979 9.69697 16.3261 9.69697 15C9.69697 13.6739 10.2078 12.4021 11.1171 11.4645C12.0263 10.5268 13.2596 10 14.5455 10Z" fill="#0A273B"/>
</svg>
