<svg width="16" height="14" viewBox="0 0 16 14" fill="none" xmlns="http://www.w3.org/2000/svg">
<path d="M2 1C2 0.446875 1.55313 0 1 0C0.446875 0 0 0.446875 0 1V11.5C0 12.8813 1.11875 14 2.5 14H15C15.5531 14 16 13.5531 16 13C16 12.4469 15.5531 12 15 12H2.5C2.225 12 2 11.775 2 11.5V1ZM5 10H14C14.5531 10 15 9.55313 15 9V6.86875C15 6.63125 14.9156 6.4 14.7594 6.21875L12.7031 3.81875C12.325 3.375 11.65 3.35 11.2375 3.7625L10.5813 4.41875C10.2688 4.73125 9.75625 4.70625 9.475 4.36875L8.25 2.9C7.85625 2.42813 7.13438 2.41875 6.72813 2.88125L4.24687 5.71875C4.0875 5.9 4 6.13438 4 6.37813V9.00313C4 9.55625 4.44688 10.0031 5 10.0031V10Z" fill="#0A273B"/>
</svg>
