<svg width="16" height="16" viewBox="0 0 16 16" fill="none" xmlns="http://www.w3.org/2000/svg">
<g clip-path="url(#clip0_383_692)">
<path d="M15.5655 0.175119C15.8811 0.393869 16.0467 0.771994 15.9873 1.15012L13.9873 14.1501C13.9405 14.4532 13.7561 14.7189 13.4873 14.8689C13.2186 15.0189 12.8967 15.0376 12.6123 14.9189L8.87484 13.3657L6.73421 15.6814C6.45609 15.9845 6.01859 16.0845 5.63421 15.9345C5.24984 15.7845 4.99984 15.4126 4.99984 15.0001V12.3876C4.99984 12.2626 5.04671 12.1439 5.13109 12.0501L10.3686 6.33762C10.5498 6.14074 10.5436 5.83762 10.3561 5.65012C10.1686 5.46262 9.86546 5.45012 9.66859 5.62824L3.31234 11.2751L0.552962 9.89387C0.221712 9.72824 0.0092122 9.39699 -0.000162795 9.02824C-0.0095378 8.65949 0.184212 8.31574 0.502962 8.13137L14.503 0.131369C14.8373 -0.0592555 15.2498 -0.0405055 15.5655 0.175119Z" fill="white"/>
</g>
<defs>
<clipPath id="clip0_383_692">
<rect width="16" height="16" fill="white"/>
</clipPath>
</defs>
</svg>
