<svg width="18" height="7" viewBox="0 0 18 7" fill="none" xmlns="http://www.w3.org/2000/svg">
<path d="M16.8166 0.492437C16.3905 0.306215 15.8943 0.500698 15.7083 0.926684C14.5429 3.59355 11.91 5.31676 9.00031 5.31676C6.67063 5.31676 4.51922 4.21142 3.15565 2.40232L3.65758 2.5022C4.11359 2.59276 4.55655 2.29682 4.64736 1.84092C4.7381 1.38501 4.44198 0.941871 3.98608 0.851134L1.62925 0.382327C1.4103 0.338909 1.18308 0.384015 0.997425 0.50801C0.811766 0.632006 0.683025 0.824697 0.639502 1.04361L0.170626 3.40051C0.0799582 3.85641 0.376007 4.29955 0.831911 4.39029C0.887352 4.4013 0.942617 4.4066 0.997039 4.4066C1.3904 4.4066 1.74192 4.12947 1.82162 3.72901L1.86898 3.49111C3.54877 5.67141 6.1674 7.00021 9.00031 7.00021C12.579 7.00021 15.8175 4.88079 17.2508 1.60084C17.4368 1.17474 17.2424 0.678553 16.8166 0.492437Z" fill="#0A273B"/>
</svg>
