<svg width="18" height="7" viewBox="0 0 18 7" fill="none" xmlns="http://www.w3.org/2000/svg">
<path d="M17.1683 2.61041C16.7124 2.52002 16.2693 2.81582 16.1785 3.27176L16.1313 3.50938C14.4515 1.32886 11.8328 0 8.99992 0C5.421 0 2.18249 2.11942 0.74932 5.39941C0.563239 5.82536 0.757617 6.32155 1.18357 6.50766C1.60952 6.69385 2.10578 6.4993 2.29183 6.07342C3.45707 3.40651 6.09016 1.68338 8.99992 1.68338C11.3297 1.68338 13.4812 2.78889 14.8449 4.5983L14.3428 4.49843C13.887 4.40797 13.4438 4.70384 13.353 5.15978C13.2624 5.61569 13.5584 6.05883 14.0143 6.14949L16.3711 6.61827C16.4256 6.62909 16.4806 6.63444 16.5354 6.63444C16.7005 6.63444 16.8635 6.58575 17.0029 6.49258C17.1886 6.36859 17.3174 6.17583 17.3609 5.95694L17.8296 3.60012C17.9202 3.14415 17.6242 2.70107 17.1683 2.61041Z" fill="#0A273B"/>
</svg>
