<svg width="8" height="7" viewBox="0 0 8 7" fill="none" xmlns="http://www.w3.org/2000/svg">
<path d="M7.2646 2.0334L4.45898 0.207955C4 -0.000296354 4 -0.000366211 3.54091 0.207885L1.2963 1.66834L1.29539 1.6689L1.28618 1.67491L1.2841 1.67625L0.735283 2.03336C0.345684 2.28687 0.235329 2.80827 0.488769 3.19787C0.593851 3.35924 0.745092 3.47191 0.913665 3.53147V5.96356C0.913736 6.42847 1.2905 6.8053 1.75541 6.8053H6.24452C6.70928 6.8053 7.08619 6.42847 7.08619 5.96363V3.53143C7.25476 3.47191 7.40597 3.35938 7.51108 3.19794C7.76463 2.80827 7.65427 2.28687 7.2646 2.0334Z" fill="#0A273B"/>
</svg>
