<svg width="25" height="24" viewBox="0 0 25 24" fill="none" xmlns="http://www.w3.org/2000/svg">
<path d="M12.4954 0C12.9267 0 13.3204 0.24375 13.5079 0.632812L16.7235 7.25625L23.9048 8.31562C24.3267 8.37656 24.6782 8.67188 24.8095 9.07969C24.9407 9.4875 24.8329 9.92812 24.5329 10.2281L19.3251 15.3937L20.5532 22.6875C20.6235 23.1094 20.4501 23.5359 20.0985 23.7891C19.747 24.0422 19.2876 24.0703 18.9126 23.8688L12.4907 20.4375L6.07823 23.8641C5.69854 24.0656 5.23917 24.0375 4.89229 23.7844C4.54542 23.5312 4.36729 23.1047 4.43761 22.6828L5.66573 15.3891L0.457918 10.2281C0.153231 9.92812 0.0501056 9.48281 0.181356 9.07969C0.312606 8.67656 0.664168 8.38125 1.08604 8.31562L8.26729 7.25625L11.4829 0.632812C11.6751 0.24375 12.0642 0 12.4954 0ZM12.4954 3.70312L10.0345 8.775C9.87042 9.10781 9.55636 9.34219 9.18604 9.39844L3.64073 10.2141L7.66729 14.2031C7.92511 14.4609 8.04698 14.8266 7.98604 15.1875L7.03448 20.7984L11.9657 18.1641C12.2985 17.9859 12.697 17.9859 13.0251 18.1641L17.9564 20.7984L17.0095 15.1922C16.9485 14.8313 17.0657 14.4656 17.3282 14.2078L21.3548 10.2188L15.8095 9.39844C15.4439 9.34219 15.1251 9.1125 14.961 8.775L12.4954 3.70312Z" fill="#0A273B"/>
</svg>
